# xmcd
#
# Track frame offsets:
#	150
#	19798
#	39121
#	51794
#	64885
#	80160
#	94642
#	110675
#	122306
#	142499
#	158550
#
# Disc length: 2390 seconds
# Revision: 0
# Processed by: cddbd v1.5.2PL0 Copyright (c) Steve Scherf et al.
# Submitted via: dBpowerAMP V12.0
#
DISCID=8e09540b
DTITLE=Alain Morisod - Comme se demain n'exisitait pas
DYEAR=1900
DGENRE=Country
TTITLE0=Comme se demain n'exisitait pas
TTITLE1=Vole vole
TTITLE2=Oui devant dieu
TTITLE3=Viens danser
TTITLE4=Le temps n'a pas passe
TTITLE5=Ciao amore
TTITLE6=Reviens
TTITLE7=Baton rouge
TTITLE8=Sans toi
TTITLE9=Savoir donner
TTITLE10=Un jour peut etre
EXTD=
EXTT0=
EXTT1=
EXTT2=
EXTT3=
EXTT4=
EXTT5=
EXTT6=
EXTT7=
EXTT8=
EXTT9=
EXTT10=
PLAYORDER=
